<svg width="12" height="12" viewBox="0 0 12 12" fill="none" xmlns="http://www.w3.org/2000/svg">
<g clip-path="url(#clip0_3161_3039)">
<path d="M5.32823 3.78775C4.51752 4.16542 3.828 4.81669 3.13797 5.76888C3.03956 5.90466 3.03559 5.98717 3.13669 6.06014C3.20776 6.11145 3.24906 6.09503 3.35257 5.98459C3.36643 5.96971 3.36643 5.96971 3.3806 5.95434C3.47009 5.85743 3.54217 5.7752 3.69616 5.59638C4.20496 5.00551 4.45347 4.76231 4.83971 4.53989C5.17395 4.34742 5.46769 4.63028 5.41176 4.99226C5.39607 5.09388 5.36903 5.16887 5.29939 5.3299C5.27169 5.39396 5.26001 5.42182 5.24702 5.45597C5.12149 5.78597 5.01576 6.06126 4.7942 6.63618L4.7836 6.66368C4.71661 6.83751 4.71661 6.83751 4.64968 7.01131C4.35952 7.76544 4.18344 8.22788 4.00177 8.71694L3.99112 8.74561C3.94237 8.8767 3.91941 8.93855 3.89403 9.00736C3.68587 9.57187 3.56682 9.93866 3.47628 10.3288C3.46214 10.3895 3.46214 10.3895 3.44781 10.4512C3.39679 10.6719 3.36949 10.8141 3.35423 10.9602C3.32784 11.213 3.34906 11.4199 3.42849 11.5939C3.51836 11.7907 3.71147 11.9315 3.93181 11.9635C4.29886 12.0168 4.65302 12.013 4.95636 11.944C5.12707 11.9052 5.29597 11.8543 5.46169 11.7921C5.94152 11.6116 6.40378 11.3301 6.85151 10.958C7.24326 10.6316 7.61393 10.2338 8.00254 9.73951C8.03641 9.6967 8.03641 9.6967 8.07018 9.65397C8.18756 9.5043 8.24506 9.40709 8.26653 9.30441C8.28988 9.19293 8.19564 9.07996 8.12032 9.11776C8.08309 9.13644 8.04415 9.17511 7.98482 9.24995C7.94237 9.30441 7.9193 9.33351 7.89621 9.35966C7.80405 9.46401 7.70674 9.57081 7.60131 9.68365C7.42748 9.8696 7.25087 10.0516 6.99471 10.3106C6.86425 10.4425 6.70017 10.5578 6.52377 10.6445C6.24142 10.7833 5.98671 10.6084 6.01731 10.2954C6.03749 10.0888 6.08754 9.87522 6.16238 9.66871C6.32586 9.21734 6.45953 8.85244 6.75526 8.04828C6.88351 7.69951 6.93888 7.54884 7.00804 7.36024C7.21311 6.80133 7.37679 6.3514 7.53254 5.91727C7.72494 5.381 7.83363 4.98126 7.88396 4.56846C7.92196 4.2571 7.83533 3.95933 7.63777 3.75461C7.41873 3.52766 7.10717 3.42311 6.71916 3.4277C6.28983 3.43281 5.78903 3.57308 5.32823 3.78775ZM8.26689 0.0863517C7.49537 -0.213823 6.56958 0.30187 6.41456 1.11866C6.30216 1.71066 6.52331 2.22177 6.9747 2.43585C7.86948 2.86021 8.94334 2.18025 8.94338 1.18918C8.94342 0.637858 8.70796 0.257983 8.26689 0.0863517Z" fill="#06C0F9"/>
</g>
<defs>
<clipPath id="clip0_3161_3039">
<rect width="12" height="12" fill="white"/>
</clipPath>
</defs>
</svg>
